<?xml version="1.0" encoding="UTF-8"?>
<svg width="575.3" height="41.97" version="1.1" viewBox="0 0 575.3 41.97" xml:space="preserve" xmlns="http://www.w3.org/2000/svg"><g transform="matrix(1.333 0 0 -1.333 0 .01175)" fill="none" stroke="#0065bd"><g stroke-width=".6376"><path d="m31.61-30.95h-11.7v0.7896"/><path d="m0-30.95h11.7v0.7989"/><path d="m11.94-30.45c-7.455 1.949-12.3 9.135-11.32 16.78 0.9839 7.643 7.495 13.37 15.2 13.36 7.706-0.00349 14.21-5.734 15.19-13.38 0.9767-7.644-3.879-14.83-11.34-16.77" stroke-linejoin="round"/></g><path d="m1.911-21.69c3.086 0.2739 4.092 12.13 9.322 12.13 5.27 0 5.248-12.16 9.331-12.16 4.028 0.0017 4.353 12.17 9.065 12.17" stroke-linejoin="round" stroke-width=".4782"/>
</g><g transform="matrix(1.333 0 0 -1.333 503.7 2.011)"><path d="m29.39 0h-2.54v-23.22h-5.805v23.22h-21.04v-5.08h5.08v-23.22h5.08v23.22h5.805v-23.22h15.96v23.22h5.805v-23.22h5.08v23.22h5.805v-23.22h5.08v28.3z" fill="#0065bd" fill-rule="evenodd"/></g><g fill="#0065bd" font-family="sans" font-size="11px" letter-spacing="0px" word-spacing="0px">
<text x="55.022461" y="9.682848" style="line-height:1.25" xml:space="preserve"><tspan x="55.022461" y="9.682848">Professorship of Embedded Systems and Internet of Things</tspan></text>
<text x="55.022461" y="24.682848" style="line-height:1.25" xml:space="preserve"><tspan x="55.022461" y="24.682848">Department of Electrical and Computer Engineering</tspan></text>
<text x="55.022461" y="39.682846" style="line-height:1.25" xml:space="preserve"><tspan x="55.022461" y="39.682846">Technical University of Munich</tspan></text>
</g></svg>
